<?xml version="1.0" standalone="no"?>
<!DOCTYPE svg PUBLIC "-//W3C//DTD SVG 20010904//EN"
 "http://www.w3.org/TR/2001/REC-SVG-20010904/DTD/svg10.dtd">
<svg version="1.0" xmlns="http://www.w3.org/2000/svg"
 width="700.000000pt" height="700.000000pt" viewBox="0 0 700.000000 700.000000"
 preserveAspectRatio="xMidYMid meet">
<metadata>
Created by potrace 1.11, written by Peter Selinger 2001-2013
</metadata>
<g transform="translate(0.000000,700.000000) scale(0.100000,-0.100000)"
fill="#000000" stroke="none">
<path d="M727 6562 l-147 -147 2 -3165 c3 -2788 5 -3170 18 -3205 l15 -40 252
-3 252 -2 15 28 c32 62 36 178 36 1094 0 862 1 910 18 905 9 -3 73 -29 142
-57 434 -176 848 -260 1225 -247 407 14 805 120 1290 342 417 191 755 287
1112 316 285 24 603 -22 955 -136 140 -46 334 -122 427 -169 39 -20 73 -36 76
-36 3 0 5 913 5 2029 l0 2028 -57 26 c-282 125 -626 226 -933 273 -159 25
-491 25 -650 1 -316 -49 -617 -139 -979 -294 -822 -352 -1366 -406 -2081 -207
-122 34 -299 95 -415 144 -55 23 -108 44 -117 47 -16 5 -18 22 -18 172 l0 167
-143 142 c-79 78 -146 142 -148 142 -2 0 -71 -66 -152 -148z"/>
</g>
</svg>
